<svg width="140" height="124" viewBox="0 0 140 124" fill="none" xmlns="http://www.w3.org/2000/svg">
<path d="M40 54.6666C40 50.6218 43.2885 47.3333 47.3333 47.3333H76.6667C80.7115 47.3333 84 50.6218 84 54.6666V84C84 88.0448 80.7115 91.3333 76.6667 91.3333H47.3333C43.2885 91.3333 40 88.0448 40 84V54.6666ZM104.064 51.4353C105.255 52.077 106 53.3145 106 54.6666V84C106 85.352 105.255 86.5895 104.064 87.2312C102.872 87.8729 101.428 87.8041 100.294 87.0479L89.2938 79.7145L87.6667 78.626V76.6666V61.9999V60.0406L89.2938 58.952L100.294 51.6187C101.417 50.8739 102.86 50.7937 104.064 51.4353Z" fill="white"/>
<path d="M131.6 0H8.4C3.7618 0 0 3.7618 0 8.4V114.8C0 119.438 3.7618 123.2 8.4 123.2H131.6C136.24 123.2 140 119.437 140 114.8V8.4C140 3.7604 136.24 0 131.6 0ZM110.6 5.6C113.687 5.6 116.2 8.1116 116.2 11.2C116.2 14.2884 113.687 16.8 110.6 16.8C107.513 16.8 105 14.2884 105 11.2C105 8.1116 107.513 5.6 110.6 5.6ZM95.2 5.6C98.287 5.6 100.8 8.1116 100.8 11.2C100.8 14.2884 98.287 16.8 95.2 16.8C92.113 16.8 89.6 14.2884 89.6 11.2C89.6 8.1116 92.113 5.6 95.2 5.6ZM131.6 114.8H8.4V22.4H131.6V114.8ZM126 16.8C122.913 16.8 120.4 14.2884 120.4 11.2C120.4 8.1116 122.913 5.6 126 5.6C129.087 5.6 131.6 8.1116 131.6 11.2C131.6 14.2884 129.087 16.8 126 16.8Z" fill="white"/>
</svg>
